<svg width="143" height="25" viewBox="0 0 143 25" fill="none" xmlns="http://www.w3.org/2000/svg">
<path d="M83.49 5.256H85.812L91.356 18H88.188L87.09 15.3H82.14L81.078 18H77.982L83.49 5.256ZM84.57 8.964L83.022 12.924H86.136L84.57 8.964ZM92.6378 5.256H96.8498C97.8698 5.256 98.8358 5.37 99.7478 5.598C100.672 5.826 101.476 6.198 102.16 6.714C102.844 7.218 103.384 7.878 103.78 8.694C104.188 9.51 104.392 10.5 104.392 11.664C104.392 12.696 104.194 13.608 103.798 14.4C103.414 15.18 102.892 15.84 102.232 16.38C101.572 16.908 100.81 17.31 99.9458 17.586C99.0818 17.862 98.1758 18 97.2278 18H92.6378V5.256ZM95.4458 15.408H96.9038C97.5518 15.408 98.1518 15.342 98.7038 15.21C99.2678 15.078 99.7538 14.862 100.162 14.562C100.57 14.25 100.888 13.848 101.116 13.356C101.356 12.852 101.476 12.24 101.476 11.52C101.476 10.896 101.356 10.356 101.116 9.9C100.888 9.432 100.576 9.048 100.18 8.748C99.7838 8.448 99.3158 8.226 98.7758 8.082C98.2478 7.926 97.6898 7.848 97.1018 7.848H95.4458V15.408ZM106.296 5.256H110.544L113.478 13.572H113.514L116.466 5.256H120.696V18H117.888V8.226H117.852L114.504 18H112.362L109.14 8.226H109.104V18H106.296V5.256ZM123.258 5.256H126.066V18H123.258V5.256ZM128.62 5.256H132.436L137.854 14.112H137.89V5.256H140.698V18H137.026L131.464 8.928H131.428V18H128.62V5.256Z" fill="white"/>
<path d="M0 5.51855H3.7607L9.10015 14.2464H9.13917V5.51855H11.9032V18.077H8.28395L2.80305 9.13456H2.76728V18.077H0.00325001L0 5.51855Z" fill="#FFCF01"/>
<path d="M25.7574 13.2377C25.7648 13.9375 25.651 14.6334 25.4208 15.2944C25.2053 15.9155 24.8548 16.4811 24.3946 16.9506C23.9344 17.4201 23.3759 17.7818 22.7592 18.0097C22.0279 18.2821 21.2518 18.4144 20.4716 18.3999C19.6849 18.4153 18.9023 18.283 18.1644 18.0097C17.5394 17.7737 16.9735 17.4041 16.506 16.9268C16.0601 16.4624 15.7186 15.9081 15.5045 15.3009C15.2736 14.6379 15.1597 13.9397 15.1679 13.2377V5.5179H17.9319V13.1271C17.9283 13.4962 17.9911 13.863 18.1173 14.21C18.2334 14.5283 18.4113 14.8206 18.6408 15.07C18.8687 15.3144 19.1458 15.5078 19.4538 15.6375C19.7754 15.7743 20.122 15.843 20.4716 15.8391C20.8194 15.8429 21.164 15.7731 21.4829 15.6342C21.7851 15.5019 22.0569 15.3088 22.2812 15.0668C22.5101 14.8169 22.6879 14.5248 22.8047 14.2067C22.931 13.8598 22.9937 13.493 22.9901 13.1238V5.51465H25.7541L25.7574 13.2377Z" fill="#FFCF01"/>
<path d="M37.2349 8.7818C36.9651 8.45293 36.6221 8.19178 36.2334 8.01925C35.7988 7.8342 35.33 7.74332 34.8578 7.75261C34.3683 7.74657 33.883 7.84495 33.4344 8.0412C32.9858 8.23746 32.5843 8.52707 32.2564 8.89074C31.922 9.26649 31.6631 9.70314 31.4939 10.1768C31.1274 11.2248 31.1274 12.366 31.4939 13.414C31.6634 13.8829 31.9187 14.3163 32.2467 14.6919C32.5597 15.0478 32.9434 15.3347 33.3734 15.5342C33.8098 15.7368 34.2857 15.8401 34.7668 15.8366C35.291 15.8467 35.8093 15.7248 36.274 15.4821C36.7114 15.2447 37.0834 14.9029 37.3569 14.4871L39.6624 16.2089C39.1535 16.9348 38.4534 17.5055 37.6398 17.8576C36.8465 18.2086 35.9887 18.3902 35.1212 18.3909C34.1964 18.4004 33.2773 18.244 32.4076 17.9291C31.6087 17.6403 30.8776 17.1904 30.2598 16.6072C29.6471 16.0205 29.1666 15.3099 28.8502 14.5228C28.1759 12.7642 28.1759 10.8184 28.8502 9.05983C29.167 8.27298 29.6475 7.56248 30.2598 6.97543C30.8776 6.3923 31.6087 5.94238 32.4076 5.65357C33.2773 5.33867 34.1964 5.18228 35.1212 5.19182C35.4929 5.19336 35.8638 5.22599 36.2301 5.28937C36.6187 5.35544 36.9999 5.45945 37.3682 5.59991C37.747 5.74613 38.1072 5.9366 38.4413 6.16736C38.7901 6.40988 39.1009 6.70305 39.3632 7.03721L37.2349 8.7818Z" fill="white"/>
<path d="M46.9556 16.9951H46.9198C46.6412 17.442 46.2287 17.7897 45.7411 17.9885C45.2481 18.1892 44.7206 18.2914 44.1883 18.2893C43.7955 18.2924 43.4043 18.2376 43.0274 18.1267C42.6698 18.0224 42.3354 17.8508 42.0421 17.621C41.7581 17.3966 41.5276 17.1116 41.3674 16.787C41.1966 16.4271 41.112 16.0324 41.1203 15.6342C41.1062 15.1979 41.2006 14.765 41.395 14.3741C41.5735 14.036 41.8285 13.7443 42.1397 13.5222C42.4668 13.2913 42.8292 13.115 43.2128 13.0003C43.6213 12.8742 44.0395 12.7817 44.4631 12.7238C44.8944 12.665 45.3287 12.6298 45.7638 12.6182C46.1947 12.6068 46.5947 12.6003 46.9605 12.6003C46.9695 12.3861 46.9285 12.1728 46.8407 11.9772C46.7529 11.7816 46.6208 11.6092 46.4548 11.4735C46.1188 11.1958 45.6941 11.048 45.2582 11.0573C44.8425 11.0518 44.4316 11.1461 44.0599 11.3321C43.6931 11.5201 43.3653 11.7761 43.0941 12.0865L41.6747 10.6313C42.1746 10.1672 42.7669 9.81368 43.4128 9.59399C44.0744 9.36314 44.7704 9.24604 45.4712 9.24768C46.1253 9.22751 46.7776 9.32669 47.3962 9.54034C47.868 9.71319 48.2843 10.0104 48.601 10.4004C48.9172 10.8093 49.1332 11.2865 49.2319 11.7938C49.3569 12.4211 49.4163 13.0598 49.4091 13.6994V18.0812H46.9556V16.9951ZM46.3053 14.2977C46.1036 14.2977 45.8516 14.3075 45.5508 14.3254C45.256 14.342 44.9641 14.3927 44.681 14.4766C44.4212 14.5497 44.1797 14.6766 43.9721 14.8489C43.8741 14.9343 43.7968 15.0409 43.7461 15.1607C43.6954 15.2804 43.6726 15.4101 43.6794 15.5399C43.6726 15.6849 43.7074 15.8289 43.7797 15.9548C43.852 16.0807 43.9588 16.1833 44.0875 16.2504C44.3461 16.3997 44.6393 16.4787 44.9379 16.4797C45.1931 16.4809 45.4472 16.4453 45.6923 16.374C45.9241 16.3092 46.1437 16.207 46.3426 16.0716C46.5303 15.9437 46.6856 15.7739 46.7963 15.5757C46.9106 15.3573 46.9666 15.1131 46.9589 14.8668V14.2977H46.3053Z" fill="white"/>
<path d="M56.6586 11.9923C56.4768 11.7583 56.2423 11.5705 55.9742 11.4442C55.706 11.3179 55.4119 11.2567 55.1157 11.2655C54.8891 11.2679 54.6663 11.3236 54.4653 11.4281C54.3618 11.4759 54.2753 11.5541 54.2172 11.6523C54.1591 11.7504 54.1322 11.8639 54.1401 11.9777C54.138 12.0802 54.1683 12.1808 54.2267 12.2652C54.2851 12.3496 54.3686 12.4134 54.4653 12.4475C54.7329 12.5647 55.0119 12.6541 55.2978 12.7142L56.3806 12.9629C56.7595 13.0494 57.1242 13.1896 57.4635 13.3792C57.7981 13.5671 58.0834 13.8318 58.2959 14.1515C58.5314 14.543 58.6447 14.9959 58.6211 15.4522C58.6409 15.9362 58.5145 16.4149 58.2585 16.8261C58.0184 17.1833 57.6997 17.4808 57.3269 17.6959C56.9299 17.9207 56.4979 18.0768 56.0489 18.1577C55.5868 18.2445 55.1176 18.2886 54.6474 18.2894C54.0294 18.287 53.4146 18.2006 52.8199 18.0325C52.2269 17.8738 51.6877 17.5581 51.259 17.1187L52.8735 15.3303C53.0982 15.6177 53.3793 15.8562 53.6995 16.031C54.0262 16.1965 54.3887 16.2786 54.7547 16.27C55.0382 16.2739 55.3203 16.2293 55.5888 16.1383C55.6973 16.1119 55.7935 16.0491 55.8613 15.9603C55.929 15.8715 55.9643 15.7622 55.9611 15.6506C55.963 15.5436 55.933 15.4384 55.8752 15.3485C55.8173 15.2585 55.734 15.1876 55.6359 15.1449C55.3706 15.0163 55.0905 14.9207 54.8019 14.8604L53.719 14.6116C53.3428 14.5264 52.9793 14.3925 52.6378 14.2133C52.2623 14.0235 51.9514 13.7267 51.7445 13.3603C51.5376 12.9939 51.4439 12.5745 51.4753 12.1549C51.4631 11.698 51.5701 11.2458 51.7858 10.8428C51.9853 10.4836 52.2631 10.1741 52.5988 9.93715C52.9518 9.69443 53.3456 9.5171 53.7613 9.41362C54.196 9.30374 54.6429 9.24911 55.0913 9.25103C55.6756 9.25196 56.2569 9.33516 56.818 9.49816C57.3809 9.65294 57.8905 9.95948 58.291 10.3843L56.6586 11.9923Z" fill="white"/>
<path d="M63.3646 4.66602V10.6266H63.4003C63.469 10.4437 63.5716 10.2754 63.7027 10.1307C63.8514 9.95836 64.0245 9.80881 64.2165 9.68679C64.4366 9.54608 64.6752 9.43664 64.9254 9.36161C65.2138 9.27762 65.5128 9.23599 65.8132 9.23804C66.3717 9.21649 66.9278 9.3227 67.4391 9.54859C67.8349 9.73959 68.1694 10.0375 68.4048 10.4087C68.6476 10.8063 68.808 11.2486 68.8763 11.7094C68.961 12.2434 69.0023 12.7833 68.9999 13.3239V18.078H66.3448V13.8507C66.3448 13.6019 66.3367 13.3451 66.3188 13.0784C66.3027 12.826 66.2479 12.5776 66.1562 12.3419C66.0725 12.0977 65.9084 11.8893 65.6906 11.7507C65.4729 11.6122 65.2145 11.5517 64.9579 11.5793C64.6686 11.5692 64.3817 11.6366 64.1271 11.7744C63.9231 11.8896 63.7545 12.0582 63.6393 12.2622C63.524 12.4806 63.4491 12.718 63.4182 12.963C63.3819 13.2324 63.364 13.504 63.3646 13.7759V18.0683H60.7046V4.66602H63.3646Z" fill="white"/>
</svg>
